<?xml version="1.0" standalone="no"?>
<!DOCTYPE svg PUBLIC "-//W3C//DTD SVG 20010904//EN"
 "http://www.w3.org/TR/2001/REC-SVG-20010904/DTD/svg10.dtd">
<svg version="1.0" xmlns="http://www.w3.org/2000/svg"
 width="256.000000pt" height="256.000000pt" viewBox="0 0 256.000000 256.000000"
 preserveAspectRatio="xMidYMid meet">
<metadata>
Created by potrace 1.16, written by Peter Selinger 2001-2019
</metadata>
<g transform="translate(0.000000,256.000000) scale(0.100000,-0.100000)"
fill="#000000" stroke="none">
<path d="M1442 2547 c-6 -7 -12 -41 -14 -76 l-3 -63 -55 -18 c-30 -9 -78 -28
-106 -43 l-51 -26 -44 45 c-24 24 -52 44 -64 44 -29 0 -245 -218 -245 -248 0
-12 18 -42 41 -67 l42 -45 -31 -68 c-16 -37 -35 -84 -42 -104 l-12 -38 -68 0
c-53 0 -69 -4 -74 -16 -12 -31 -7 -329 6 -342 7 -7 39 -12 74 -12 l62 0 12
-37 c7 -21 26 -68 42 -105 l31 -68 -42 -45 c-23 -25 -41 -55 -41 -67 0 -30
216 -248 246 -248 11 0 39 20 63 44 l44 45 51 -26 c28 -15 76 -34 106 -43 l55
-18 3 -68 c2 -39 8 -72 15 -76 7 -4 85 -8 173 -8 120 0 164 3 172 13 6 7 12
42 14 77 3 56 6 65 23 68 11 2 57 20 103 39 l83 35 44 -41 c25 -23 54 -41 66
-41 27 0 237 204 246 238 4 19 -4 34 -42 72 -46 47 -47 48 -31 72 9 14 29 61
45 104 l29 79 63 3 c35 2 69 8 76 14 19 15 19 331 0 346 -7 6 -41 12 -76 14
l-63 3 -29 79 c-16 43 -36 90 -45 104 -16 24 -15 25 31 72 38 38 46 53 42 72
-9 34 -219 238 -246 238 -12 0 -41 -18 -66 -41 l-44 -41 -83 35 c-46 19 -92
37 -103 39 -17 3 -20 12 -23 68 -2 35 -8 70 -14 77 -8 10 -53 13 -173 13 -120
0 -165 -3 -173 -13z m278 -136 c0 -68 5 -74 77 -91 29 -6 91 -32 138 -56 47
-24 88 -44 91 -44 2 0 25 19 50 42 l45 42 72 -72 71 -72 -42 -43 c-23 -23 -42
-47 -42 -52 0 -5 18 -43 39 -85 22 -41 47 -102 56 -135 10 -33 22 -66 27 -72
6 -8 34 -13 69 -13 l59 0 0 -105 0 -105 -59 0 c-35 0 -63 -5 -69 -12 -5 -7
-17 -40 -27 -73 -9 -33 -34 -94 -56 -135 -21 -42 -39 -80 -39 -85 0 -5 19 -29
42 -52 l42 -43 -71 -72 -72 -72 -45 42 c-25 23 -48 42 -50 42 -3 0 -44 -20
-93 -44 -48 -24 -110 -49 -138 -56 -70 -18 -75 -24 -75 -91 l0 -59 -105 0
-105 0 0 59 c0 35 -5 63 -12 68 -7 6 -37 16 -66 23 -29 7 -91 32 -138 56 -48
24 -88 44 -91 44 -2 0 -25 -20 -52 -45 l-47 -44 -72 72 -72 73 36 34 c57 56
59 62 22 127 -18 32 -47 99 -63 148 l-31 90 -67 3 -67 3 0 104 0 104 67 3 68
3 26 80 c14 44 39 105 55 135 48 92 48 86 -1 139 l-44 47 72 72 73 72 34 -36
c57 -58 59 -58 154 -10 47 24 109 49 138 56 29 7 59 17 66 23 7 5 12 33 12 68
l0 59 105 0 105 0 0 -59z"/>
<path d="M1535 2210 c-179 -24 -339 -140 -421 -305 -36 -73 -64 -182 -64 -250
0 -22 7 -71 15 -110 55 -259 278 -445 539 -448 186 -1 348 77 457 223 73 98
101 181 107 315 4 100 1 118 -23 190 -87 263 -338 421 -610 385z m234 -102
c105 -35 206 -120 263 -218 78 -135 78 -335 0 -470 -128 -222 -398 -306 -628
-195 -187 90 -300 306 -265 504 53 296 351 475 630 379z"/>
<path d="M1470 2049 c-346 -136 -372 -603 -42 -766 74 -37 79 -38 187 -38 102
0 115 2 176 31 84 40 158 114 201 201 31 64 33 73 33 178 0 105 -2 114 -33
178 -44 89 -114 160 -199 200 -60 28 -80 32 -168 34 -83 3 -109 -1 -155 -18z
m295 -91 c245 -126 245 -478 0 -606 -44 -24 -61 -27 -150 -27 -86 0 -107 3
-150 24 -97 48 -163 138 -186 254 -23 112 39 260 136 327 73 50 110 60 210 57
73 -3 99 -8 140 -29z"/>
<path d="M1578 1883 c-6 -16 -24 -37 -40 -46 -37 -21 -61 -77 -52 -122 7 -41
63 -95 99 -95 44 0 75 -18 75 -43 0 -49 -50 -62 -98 -27 -31 23 -58 19 -67
-10 -8 -25 13 -58 46 -72 14 -6 31 -25 37 -41 14 -36 51 -34 69 4 7 14 23 31
36 38 34 18 57 63 57 111 0 58 -45 104 -112 114 -52 8 -73 26 -63 55 10 33 53
38 97 12 l38 -21 20 20 c25 25 14 51 -32 80 -17 10 -35 29 -42 42 -18 36 -55
36 -68 1z"/>
<path d="M65 1015 l-25 -24 0 -414 c0 -507 -13 -467 149 -467 123 0 141 7 150
66 6 37 9 40 56 52 83 21 123 9 357 -111 l218 -112 82 1 c74 0 136 15 553 128
259 69 478 129 488 132 27 8 86 63 101 93 50 98 11 223 -84 271 -65 33 -119
26 -421 -55 -153 -41 -281 -75 -284 -75 -3 0 -5 15 -5 33 0 47 -43 131 -81
159 -80 59 -558 328 -602 339 -73 18 -150 6 -263 -40 -55 -22 -103 -41 -107
-41 -4 0 -7 11 -7 24 0 15 -11 33 -26 45 -23 18 -41 21 -126 21 -92 0 -101 -2
-123 -25z m622 -65 c32 -7 431 -232 569 -320 55 -35 73 -134 33 -184 -31 -39
-76 -59 -120 -53 -22 3 -97 40 -185 91 -162 95 -199 105 -199 53 0 -27 13 -36
162 -123 127 -75 172 -96 212 -101 61 -7 127 15 169 56 23 24 74 40 350 114
178 48 332 87 343 87 55 0 109 -58 109 -117 0 -38 -34 -91 -66 -103 -14 -6
-238 -67 -496 -136 -413 -111 -479 -126 -532 -122 -55 3 -80 14 -241 100 -99
52 -202 103 -228 112 -53 18 -145 21 -195 7 l-32 -10 2 275 3 276 105 44 c147
63 173 69 237 54z m-427 -380 l0 -380 -65 0 -65 0 0 380 0 380 65 0 65 0 0
-380z"/>
</g>
</svg>
